# Blender v2.79 (sub 0) OBJ File: ''
# www.blender.org
mtllib test3.mtl
o Cube_Cube.001
v 1.166657 0.434844 0.220868
v 0.424568 1.589154 1.675816
v -0.673778 0.188028 -0.522020
v -1.415866 1.342339 0.932927
v 1.415866 2.049357 -0.932927
v 0.673778 3.203667 0.522020
v -0.424568 1.802541 -1.675816
v -1.166657 2.956851 -0.220868
vn -0.1246 -0.8073 0.5769
vn -0.9202 -0.1234 -0.3714
vn 0.1246 0.8073 -0.5769
vn 0.9202 0.1234 0.3714
vn 0.3710 -0.5772 -0.7275
vn -0.3710 0.5772 0.7275
usemtl Material.002
s off
f 1//1 2//1 4//1 3//1
f 3//2 4//2 8//2 7//2
f 7//3 8//3 6//3 5//3
f 5//4 6//4 2//4 1//4
f 3//5 7//5 5//5 1//5
f 8//6 4//6 2//6 6//6
